<?xml version="1.0" encoding="utf-8"?>
<!-- Generator: Adobe Illustrator 22.1.0, SVG Export Plug-In . SVG Version: 6.00 Build 0)  -->
<svg version="1.1" id="Layer_1" xmlns="http://www.w3.org/2000/svg" xmlns:xlink="http://www.w3.org/1999/xlink" x="0px" y="0px"
	 viewBox="0 0 636.1 140.4" style="enable-background:new 0 0 636.1 140.4;" xml:space="preserve">
<style type="text/css">
	.st0{fill:url(#SVGID_1_);}
	.st1{fill:url(#SVGID_2_);}
	.st2{fill:url(#SVGID_3_);}
	.st3{opacity:0.57;fill:url(#SVGID_4_);enable-background:new    ;}
	.st4{fill:url(#SVGID_5_);stroke:url(#SVGID_6_);stroke-width:0.25;stroke-miterlimit:10;}
	.st5{fill:url(#SVGID_7_);stroke:url(#SVGID_8_);stroke-width:0.25;stroke-miterlimit:10;}
	.st6{fill:url(#SVGID_9_);stroke:url(#SVGID_10_);stroke-width:0.25;stroke-miterlimit:10;}
	.st7{fill:url(#SVGID_11_);stroke:url(#SVGID_12_);stroke-width:0.25;stroke-miterlimit:10;}
	.st8{fill:url(#SVGID_13_);stroke:url(#SVGID_14_);stroke-width:0.25;stroke-miterlimit:10;}
	.st9{fill:url(#SVGID_15_);stroke:url(#SVGID_16_);stroke-width:0.25;stroke-miterlimit:10;}
	.st10{fill:url(#SVGID_17_);stroke:url(#SVGID_18_);stroke-width:0.25;stroke-miterlimit:10;}
	.st11{fill:url(#SVGID_19_);stroke:url(#SVGID_20_);stroke-width:0.25;stroke-miterlimit:10;}
	.st12{fill:url(#SVGID_21_);stroke:url(#SVGID_22_);stroke-width:0.25;stroke-miterlimit:10;}
	.st13{fill:url(#SVGID_23_);stroke:url(#SVGID_24_);stroke-width:0.25;stroke-miterlimit:10;}
	.st14{fill:url(#SVGID_25_);stroke:url(#SVGID_26_);stroke-width:0.25;stroke-miterlimit:10;}
	.st15{fill:url(#SVGID_27_);stroke:url(#SVGID_28_);stroke-width:0.25;stroke-miterlimit:10;}
	.st16{fill:url(#SVGID_29_);stroke:url(#SVGID_30_);stroke-width:0.25;stroke-miterlimit:10;}
	.st17{fill:url(#SVGID_31_);stroke:url(#SVGID_32_);stroke-width:0.25;stroke-miterlimit:10;}
	.st18{fill:url(#SVGID_33_);stroke:url(#SVGID_34_);stroke-width:0.25;stroke-miterlimit:10;}
</style>
<g>
	<g>
		<linearGradient id="SVGID_1_" gradientUnits="userSpaceOnUse" x1="65.1556" y1="57.7996" x2="37.4006" y2="9.7265">
			<stop  offset="0" style="stop-color:#DA8CFF"/>
			<stop  offset="1" style="stop-color:#9A55FF"/>
			<stop  offset="1" style="stop-color:#080509"/>
			<stop  offset="1" style="stop-color:#000000"/>
		</linearGradient>
		<path class="st0" d="M100.2,30L53.1,6.5c-1.2-0.6-2.5-0.6-3.7,0L2.3,30C0.9,30.7,0,32.2,0,33.7c0,1.6,0.9,3,2.3,3.7L49.4,61
			c0.6,0.3,1.2,0.4,1.9,0.4c0.6,0,1.3-0.1,1.9-0.4l47.1-23.5c1.4-0.7,2.3-2.1,2.3-3.7C102.5,32.2,101.6,30.7,100.2,30z M51.2,52.7
			l-37.8-19l37.8-18.9L89,33.7L51.2,52.7z"/>
	</g>
</g>
<g>
	<g>
		<linearGradient id="SVGID_2_" gradientUnits="userSpaceOnUse" x1="65.1067" y1="104.9189" x2="37.3645" y2="56.868">
			<stop  offset="0" style="stop-color:#DA8CFF"/>
			<stop  offset="1" style="stop-color:#9A55FF"/>
			<stop  offset="1" style="stop-color:#080509"/>
			<stop  offset="1" style="stop-color:#000000"/>
		</linearGradient>
		<path class="st1" d="M102,79c-1-2-3.5-2.9-5.6-1.9L51.2,99.8L6,77.1c-2-1-4.5-0.2-5.6,1.9c-1,2-0.2,4.5,1.9,5.6l47.1,23.5
			c0.6,0.3,1.2,0.4,1.9,0.4c0.6,0,1.3-0.1,1.9-0.4l47.1-23.5C102.2,83.5,103,81,102,79z"/>
	</g>
</g>
<g>
	<g>
		<linearGradient id="SVGID_3_" gradientUnits="userSpaceOnUse" x1="65.0636" y1="81.2943" x2="37.3862" y2="33.3555">
			<stop  offset="0" style="stop-color:#DA8CFF"/>
			<stop  offset="1" style="stop-color:#9A55FF"/>
			<stop  offset="1" style="stop-color:#080509"/>
			<stop  offset="1" style="stop-color:#000000"/>
		</linearGradient>
		<path class="st2" d="M102,55.4c-1-2-3.5-2.9-5.6-1.9L51.2,76.2L6,53.6c-2-1-4.5-0.2-5.6,1.9c-1,2-0.2,4.5,1.9,5.6l47.1,23.5
			c0.6,0.3,1.2,0.4,1.9,0.4c0.6,0,1.3-0.1,1.9-0.4l47-23.6C102.2,60,103,57.5,102,55.4z"/>
	</g>
</g>
<linearGradient id="SVGID_4_" gradientUnits="userSpaceOnUse" x1="-3449.9983" y1="1094.2952" x2="-831.5722" y2="1094.2952" gradientTransform="matrix(9.344649e-02 0.9956 0.9956 -9.344649e-02 742.1888 1986.8923)">
	<stop  offset="0" style="stop-color:#FFFFFF"/>
	<stop  offset="0" style="stop-color:#FFBA96"/>
	<stop  offset="4.950495e-03" style="stop-color:#FFBF96"/>
	<stop  offset="1" style="stop-color:#FE7096"/>
	<stop  offset="1" style="stop-color:#000000"/>
</linearGradient>
<path class="st3" d="M2026.7-1315.2c0,0,713.4,238.4,159.4,756.4s104.7,1115.1,259,1132.8c154.3,17.7-1132,524.1-1132,524.1
	L774.5-530.8c0,0,416.6-955.1,493.2-994.4S2026.7-1315.2,2026.7-1315.2z"/>
<g>
	<linearGradient id="SVGID_5_" gradientUnits="userSpaceOnUse" x1="346.9405" y1="72.452" x2="305.6194" y2="72.452">
		<stop  offset="0" style="stop-color:#DA8CFF"/>
		<stop  offset="1" style="stop-color:#9A55FF"/>
		<stop  offset="1" style="stop-color:#080509"/>
		<stop  offset="1" style="stop-color:#000000"/>
	</linearGradient>
	<linearGradient id="SVGID_6_" gradientUnits="userSpaceOnUse" x1="347.0655" y1="72.452" x2="305.4871" y2="72.452">
		<stop  offset="0" style="stop-color:#DA8CFF"/>
		<stop  offset="1" style="stop-color:#9A55FF"/>
		<stop  offset="1" style="stop-color:#080509"/>
		<stop  offset="1" style="stop-color:#000000"/>
	</linearGradient>
	<path class="st4" d="M342.5,34.3c-6.4,0-14.5,4.6-17.9,15.5h-0.5L323.4,36h-17.7c0.4,6.4,0.5,13.6,0.5,24.6v50h20.7V72.8
		c0-1.9,0.1-3.7,0.4-5.2c1.4-7.3,6.6-11.8,14.2-11.8c2.3,0,4,0.3,5.6,0.7V34.7C345.4,34.4,344.4,34.3,342.5,34.3z"/>
	<linearGradient id="SVGID_7_" gradientUnits="userSpaceOnUse" x1="422.0718" y1="73.2905" x2="352.8043" y2="73.2905">
		<stop  offset="0" style="stop-color:#DA8CFF"/>
		<stop  offset="1" style="stop-color:#9A55FF"/>
		<stop  offset="1" style="stop-color:#080509"/>
		<stop  offset="1" style="stop-color:#000000"/>
	</linearGradient>
	<linearGradient id="SVGID_8_" gradientUnits="userSpaceOnUse" x1="422.1968" y1="73.2905" x2="352.6793" y2="73.2905">
		<stop  offset="0" style="stop-color:#DA8CFF"/>
		<stop  offset="1" style="stop-color:#9A55FF"/>
		<stop  offset="1" style="stop-color:#080509"/>
		<stop  offset="1" style="stop-color:#000000"/>
	</linearGradient>
	<path class="st5" d="M388.3,34.3c-21.3,0-35.5,15.5-35.5,39.5c0,24.1,15,38.4,34.3,38.4c17.8,0,35-12.5,35-39.7
		C422.1,50,408.6,34.3,388.3,34.3z M387.7,95.7c-8.8,0-13.6-9.7-13.6-22.4c0-11.1,3.8-22.4,13.6-22.4c9.3,0,13.1,11.3,13.1,22.3
		C400.8,86.7,395.7,95.7,387.7,95.7z"/>
	<linearGradient id="SVGID_9_" gradientUnits="userSpaceOnUse" x1="500.6758" y1="73.2905" x2="431.4081" y2="73.2905">
		<stop  offset="0" style="stop-color:#DA8CFF"/>
		<stop  offset="1" style="stop-color:#9A55FF"/>
		<stop  offset="1" style="stop-color:#080509"/>
		<stop  offset="1" style="stop-color:#000000"/>
	</linearGradient>
	<linearGradient id="SVGID_10_" gradientUnits="userSpaceOnUse" x1="500.8008" y1="73.2905" x2="431.2831" y2="73.2905">
		<stop  offset="0" style="stop-color:#DA8CFF"/>
		<stop  offset="1" style="stop-color:#9A55FF"/>
		<stop  offset="1" style="stop-color:#080509"/>
		<stop  offset="1" style="stop-color:#000000"/>
	</linearGradient>
	<path class="st6" d="M466.9,34.3c-21.3,0-35.5,15.5-35.5,39.5c0,24.1,15,38.4,34.3,38.4c17.8,0,35-12.5,35-39.7
		C500.7,50,487.2,34.3,466.9,34.3z M466.3,95.7c-8.8,0-13.6-9.7-13.6-22.4c0-11.1,3.8-22.4,13.6-22.4c9.3,0,13.1,11.3,13.1,22.3
		C479.4,86.7,474.3,95.7,466.3,95.7z"/>
</g>
<linearGradient id="SVGID_11_" gradientUnits="userSpaceOnUse" x1="598.6261" y1="107.6942" x2="590.4352" y2="107.6942">
	<stop  offset="0" style="stop-color:#DA8CFF"/>
	<stop  offset="1" style="stop-color:#9A55FF"/>
	<stop  offset="1" style="stop-color:#080509"/>
	<stop  offset="1" style="stop-color:#000000"/>
</linearGradient>
<linearGradient id="SVGID_12_" gradientUnits="userSpaceOnUse" x1="598.7511" y1="107.6942" x2="590.3102" y2="107.6942">
	<stop  offset="0" style="stop-color:#DA8CFF"/>
	<stop  offset="1" style="stop-color:#9A55FF"/>
	<stop  offset="1" style="stop-color:#080509"/>
	<stop  offset="1" style="stop-color:#000000"/>
</linearGradient>
<path class="st7" d="M597.3,109.3h-5.6c-0.7,0-1.3-0.6-1.3-1.3v-0.6c0-0.7,0.6-1.3,1.3-1.3h5.6c0.7,0,1.3,0.6,1.3,1.3v0.6
	C598.6,108.7,598,109.3,597.3,109.3z"/>
<linearGradient id="SVGID_13_" gradientUnits="userSpaceOnUse" x1="614.3707" y1="72.2192" x2="606.0992" y2="72.2192">
	<stop  offset="0" style="stop-color:#DA8CFF"/>
	<stop  offset="1" style="stop-color:#9A55FF"/>
	<stop  offset="1" style="stop-color:#080509"/>
	<stop  offset="1" style="stop-color:#000000"/>
</linearGradient>
<linearGradient id="SVGID_14_" gradientUnits="userSpaceOnUse" x1="614.4957" y1="72.2192" x2="605.9742" y2="72.2192">
	<stop  offset="0" style="stop-color:#DA8CFF"/>
	<stop  offset="1" style="stop-color:#9A55FF"/>
	<stop  offset="1" style="stop-color:#080509"/>
	<stop  offset="1" style="stop-color:#000000"/>
</linearGradient>
<path class="st8" d="M613,73.9h-5.5c-0.8,0-1.4-0.6-1.4-1.4v-0.6c0-0.8,0.6-1.4,1.4-1.4h5.5c0.8,0,1.4,0.6,1.4,1.4v0.6
	C614.4,73.3,613.7,73.9,613,73.9z"/>
<linearGradient id="SVGID_15_" gradientUnits="userSpaceOnUse" x1="636.1" y1="79.1147" x2="627.8285" y2="79.1147">
	<stop  offset="0" style="stop-color:#DA8CFF"/>
	<stop  offset="1" style="stop-color:#9A55FF"/>
	<stop  offset="1" style="stop-color:#080509"/>
	<stop  offset="1" style="stop-color:#000000"/>
</linearGradient>
<linearGradient id="SVGID_16_" gradientUnits="userSpaceOnUse" x1="636.225" y1="79.1147" x2="627.7035" y2="79.1147">
	<stop  offset="0" style="stop-color:#DA8CFF"/>
	<stop  offset="1" style="stop-color:#9A55FF"/>
	<stop  offset="1" style="stop-color:#080509"/>
	<stop  offset="1" style="stop-color:#000000"/>
</linearGradient>
<path class="st9" d="M634.7,80.8h-5.5c-0.8,0-1.4-0.6-1.4-1.4v-0.6c0-0.8,0.6-1.4,1.4-1.4h5.5c0.8,0,1.4,0.6,1.4,1.4v0.6
	C636.1,80.2,635.5,80.8,634.7,80.8z"/>
<linearGradient id="SVGID_17_" gradientUnits="userSpaceOnUse" x1="592.1594" y1="52.3836" x2="587.0758" y2="52.3836">
	<stop  offset="0" style="stop-color:#DA8CFF"/>
	<stop  offset="1" style="stop-color:#9A55FF"/>
	<stop  offset="1" style="stop-color:#080509"/>
	<stop  offset="1" style="stop-color:#000000"/>
</linearGradient>
<linearGradient id="SVGID_18_" gradientUnits="userSpaceOnUse" x1="592.2844" y1="52.3836" x2="586.9508" y2="52.3836">
	<stop  offset="0" style="stop-color:#DA8CFF"/>
	<stop  offset="1" style="stop-color:#9A55FF"/>
	<stop  offset="1" style="stop-color:#080509"/>
	<stop  offset="1" style="stop-color:#000000"/>
</linearGradient>
<path class="st10" d="M591.2,53.5H588c-0.5,0-0.9-0.4-0.9-0.9v-0.4c0-0.5,0.4-0.9,0.9-0.9h3.2c0.5,0,0.9,0.4,0.9,0.9v0.4
	C592.2,53.1,591.7,53.5,591.2,53.5z"/>
<linearGradient id="SVGID_19_" gradientUnits="userSpaceOnUse" x1="605.826" y1="56.9806" x2="600.7424" y2="56.9806">
	<stop  offset="0" style="stop-color:#DA8CFF"/>
	<stop  offset="1" style="stop-color:#9A55FF"/>
	<stop  offset="1" style="stop-color:#080509"/>
	<stop  offset="1" style="stop-color:#000000"/>
</linearGradient>
<linearGradient id="SVGID_20_" gradientUnits="userSpaceOnUse" x1="605.951" y1="56.9806" x2="600.6174" y2="56.9806">
	<stop  offset="0" style="stop-color:#DA8CFF"/>
	<stop  offset="1" style="stop-color:#9A55FF"/>
	<stop  offset="1" style="stop-color:#080509"/>
	<stop  offset="1" style="stop-color:#000000"/>
</linearGradient>
<path class="st11" d="M604.9,58.1h-3.2c-0.5,0-0.9-0.4-0.9-0.9v-0.4c0-0.5,0.4-0.9,0.9-0.9h3.2c0.5,0,0.9,0.4,0.9,0.9v0.4
	C605.8,57.7,605.4,58.1,604.9,58.1z"/>
<linearGradient id="SVGID_21_" gradientUnits="userSpaceOnUse" x1="626.6693" y1="84.552" x2="506.5281" y2="84.552">
	<stop  offset="0" style="stop-color:#DA8CFF"/>
	<stop  offset="1" style="stop-color:#9A55FF"/>
	<stop  offset="1" style="stop-color:#080509"/>
	<stop  offset="1" style="stop-color:#000000"/>
</linearGradient>
<linearGradient id="SVGID_22_" gradientUnits="userSpaceOnUse" x1="626.7943" y1="84.552" x2="506.3979" y2="84.552">
	<stop  offset="0" style="stop-color:#DA8CFF"/>
	<stop  offset="1" style="stop-color:#9A55FF"/>
	<stop  offset="1" style="stop-color:#080509"/>
	<stop  offset="1" style="stop-color:#000000"/>
</linearGradient>
<path class="st12" d="M626.3,77.9c-0.2-0.3-0.6-0.5-0.9-0.5h-42.6c-0.7,0-1.3-0.8-1.3-1.7c0-1,0.6-1.7,1.3-1.7h15.1
	c0.7,0,1.3-0.8,1.3-1.7c0-0.5-0.1-0.9-0.4-1.2c-0.2-0.3-0.6-0.5-0.9-0.5h-22.4c0-0.4,0-0.8,0-1.2c0-4-0.4-7.7-1.1-11.2h24.6
	c0.4,0,0.8-0.5,0.8-1.2c0-0.3-0.1-0.6-0.2-0.8c-0.1-0.2-0.3-0.3-0.6-0.3h-25.1c-0.2-0.8-0.4-1.6-0.6-2.3h8.8c0.4,0,0.8-0.5,0.8-1.1
	c0-0.3-0.1-0.6-0.2-0.8c-0.1-0.2-0.3-0.3-0.6-0.3h-9.6c-1.4-3.9-3.3-7.3-5.6-10.1h54.3c0.7,0,1.2-0.7,1.2-1.6c0-0.4-0.1-0.9-0.4-1.2
	c-0.2-0.3-0.5-0.5-0.9-0.5h-48.1c-0.7,0-1.2-0.7-1.2-1.6c0-0.9,0.6-1.6,1.2-1.6h16.3c0.7,0,1.2-0.7,1.2-1.6c0-0.4-0.1-0.9-0.4-1.2
	c-0.2-0.3-0.5-0.5-0.9-0.5h-43.7c-0.2,0-0.3,0-0.5,0.1c-8.4,0.7-15.1,4.9-19.5,12h-0.3l-1-10.5h-17.9c0.3,7,0.5,15.3,0.5,25.1v79.7
	h20.6v-37h0.3c2.7,4.6,8.4,8,15.5,8.5c0.3,0,0.6,0,0.9,0h43.1c0.3,0,0.7-0.2,0.9-0.5c0.2-0.3,0.4-0.7,0.4-1.2c0-0.9-0.6-1.6-1.2-1.6
	h-16.3c-0.7,0-1.2-0.7-1.2-1.6c0-0.9,0.6-1.6,1.2-1.6h48.1c0.3,0,0.7-0.2,0.9-0.5c0.2-0.3,0.4-0.7,0.4-1.2c0-0.9-0.6-1.6-1.2-1.6
	h-53.3c1.5-1.7,2.8-3.7,4-5.9h40.8c0.4,0,0.8-0.5,0.8-1.1c0-0.3-0.1-0.6-0.2-0.8c-0.1-0.2-0.3-0.3-0.6-0.3h-26.2
	c-0.4,0-0.8-0.5-0.8-1.2c0-0.6,0.4-1.1,0.8-1.1h9.3c0.4,0,0.8-0.5,0.8-1.2c0-0.3-0.1-0.6-0.2-0.8c-0.1-0.2-0.3-0.3-0.6-0.3h-21
	c0.6-1.8,1.1-3.8,1.5-5.9h51c0.7,0,1.3-0.8,1.3-1.7C626.7,78.6,626.5,78.2,626.3,77.9z M554.3,73.9l-0.5,3.4
	c-1.6,8.7-6.5,14.2-13.6,14.2c-6,0-10.7-4.8-12.1-11c-0.3-1.5-0.4-3.1-0.4-4.8V65.4c0-1.4,0.2-2.8,0.5-4.2
	c1.3-6.8,6.5-11.7,12.3-11.7c9.2,0,13.9,9.1,13.9,20.9C554.4,71.6,554.4,72.8,554.3,73.9z"/>
<linearGradient id="SVGID_23_" gradientUnits="userSpaceOnUse" x1="602.2596" y1="87.7529" x2="597.176" y2="87.7529">
	<stop  offset="0" style="stop-color:#DA8CFF"/>
	<stop  offset="1" style="stop-color:#9A55FF"/>
	<stop  offset="1" style="stop-color:#080509"/>
	<stop  offset="1" style="stop-color:#000000"/>
</linearGradient>
<linearGradient id="SVGID_24_" gradientUnits="userSpaceOnUse" x1="602.3846" y1="87.7529" x2="597.051" y2="87.7529">
	<stop  offset="0" style="stop-color:#DA8CFF"/>
	<stop  offset="1" style="stop-color:#9A55FF"/>
	<stop  offset="1" style="stop-color:#080509"/>
	<stop  offset="1" style="stop-color:#000000"/>
</linearGradient>
<path class="st13" d="M601.3,88.9h-3.2c-0.5,0-0.9-0.4-0.9-0.9v-0.4c0-0.5,0.4-0.9,0.9-0.9h3.2c0.5,0,0.9,0.4,0.9,0.9V88
	C602.3,88.5,601.8,88.9,601.3,88.9z"/>
<linearGradient id="SVGID_25_" gradientUnits="userSpaceOnUse" x1="601.0554" y1="32.9344" x2="592.8576" y2="32.9344">
	<stop  offset="0" style="stop-color:#DA8CFF"/>
	<stop  offset="1" style="stop-color:#9A55FF"/>
	<stop  offset="1" style="stop-color:#080509"/>
	<stop  offset="1" style="stop-color:#000000"/>
</linearGradient>
<linearGradient id="SVGID_26_" gradientUnits="userSpaceOnUse" x1="601.1804" y1="32.9344" x2="592.7326" y2="32.9344">
	<stop  offset="0" style="stop-color:#DA8CFF"/>
	<stop  offset="1" style="stop-color:#9A55FF"/>
	<stop  offset="1" style="stop-color:#080509"/>
	<stop  offset="1" style="stop-color:#000000"/>
</linearGradient>
<path class="st14" d="M599.7,31.3h-5.5c-0.7,0-1.3,0.6-1.3,1.3v0.6c0,0.7,0.6,1.3,1.3,1.3h5.5c0.7,0,1.3-0.6,1.3-1.3v-0.6
	C601.1,31.9,600.5,31.3,599.7,31.3z"/>
<linearGradient id="SVGID_27_" gradientUnits="userSpaceOnUse" x1="190.4445" y1="8.7168" x2="181.1006" y2="8.7168">
	<stop  offset="0" style="stop-color:#DA8CFF"/>
	<stop  offset="1" style="stop-color:#9A55FF"/>
	<stop  offset="1" style="stop-color:#080509"/>
	<stop  offset="1" style="stop-color:#000000"/>
</linearGradient>
<linearGradient id="SVGID_28_" gradientUnits="userSpaceOnUse" x1="190.5695" y1="8.7168" x2="180.9756" y2="8.7168">
	<stop  offset="0" style="stop-color:#DA8CFF"/>
	<stop  offset="1" style="stop-color:#9A55FF"/>
	<stop  offset="1" style="stop-color:#080509"/>
	<stop  offset="1" style="stop-color:#000000"/>
</linearGradient>
<path class="st15" d="M182.5,10.5h6.5c0.8,0,1.4-0.6,1.4-1.4V8.4c0-0.8-0.6-1.4-1.4-1.4h-6.5c-0.8,0-1.4,0.6-1.4,1.4V9
	C181.1,9.8,181.7,10.5,182.5,10.5z"/>
<linearGradient id="SVGID_29_" gradientUnits="userSpaceOnUse" x1="290.3694" y1="59.2219" x2="124" y2="59.2219">
	<stop  offset="0" style="stop-color:#DA8CFF"/>
	<stop  offset="1" style="stop-color:#9A55FF"/>
	<stop  offset="1" style="stop-color:#080509"/>
	<stop  offset="1" style="stop-color:#000000"/>
</linearGradient>
<linearGradient id="SVGID_30_" gradientUnits="userSpaceOnUse" x1="290.4944" y1="59.2219" x2="123.875" y2="59.2219">
	<stop  offset="0" style="stop-color:#DA8CFF"/>
	<stop  offset="1" style="stop-color:#9A55FF"/>
	<stop  offset="1" style="stop-color:#080509"/>
	<stop  offset="1" style="stop-color:#000000"/>
</linearGradient>
<path class="st16" d="M290.4,51.7v54.1c-6.4,2.5-18.5,5.8-30.5,5.8c-0.1,0-0.2,0-0.3,0c0,0,0,0,0,0h-94.7c-1,0-1.8-0.9-1.8-2.1
	c0-0.6,0.2-1.1,0.5-1.5c0.3-0.4,0.8-0.6,1.3-0.6h58.3c1,0,1.8-0.9,1.8-2.1c0-1.2-0.8-2.1-1.8-2.1h-20.6c-1,0-1.8-0.9-1.8-2.1
	c0-0.6,0.2-1.1,0.5-1.5c0.3-0.4,0.8-0.6,1.3-0.6h21.4c-0.4-0.4-0.8-0.8-1.2-1.2c-7.9-8.5-12.5-20.9-12.9-35h-46.3
	c-0.5,0-0.9-0.2-1.3-0.6c-0.3-0.4-0.5-0.9-0.5-1.5c0-1.2,0.8-2.1,1.8-2.1h20.6c1,0,1.8-0.9,1.8-2.1c0-1.2-0.8-2.1-1.8-2.1h-58.3
	c-0.5,0-0.9-0.2-1.3-0.6c-0.3-0.4-0.5-0.9-0.5-1.5c0-1.2,0.8-2.1,1.8-2.1h84.7c2.1-14.1,8.3-25,17.5-32.4h-75.5c-1.1,0-2-0.8-2-1.8
	c0-0.5,0.2-1,0.6-1.3c0.4-0.3,0.9-0.5,1.4-0.5h66.1c1.1,0,2-0.8,2-1.8c0-1-0.9-1.8-2-1.8h-23.4c-1.1,0-2-0.8-2-1.8
	c0-0.5,0.2-1,0.6-1.3c0.4-0.3,0.9-0.5,1.4-0.5h62.4c1.4-0.1,2.9-0.1,4.4-0.1c11.8,0,20.9,2.5,25.4,4.9l-4.3,18.6
	c-5.1-2.5-11.2-4.4-21.3-4.4c-17.2,0-30.3,10.9-30.3,33.2c0,21.2,11.9,33.7,28.8,33.7c4.7,0,8.5-0.6,10.1-1.4V69.9h-14.1V51.7H290.4
	z"/>
<linearGradient id="SVGID_31_" gradientUnits="userSpaceOnUse" x1="155.7048" y1="60.7202" x2="145.1349" y2="60.7202">
	<stop  offset="0" style="stop-color:#DA8CFF"/>
	<stop  offset="1" style="stop-color:#9A55FF"/>
	<stop  offset="1" style="stop-color:#080509"/>
	<stop  offset="1" style="stop-color:#000000"/>
</linearGradient>
<linearGradient id="SVGID_32_" gradientUnits="userSpaceOnUse" x1="155.8298" y1="60.7202" x2="145.0099" y2="60.7202">
	<stop  offset="0" style="stop-color:#DA8CFF"/>
	<stop  offset="1" style="stop-color:#9A55FF"/>
	<stop  offset="1" style="stop-color:#080509"/>
	<stop  offset="1" style="stop-color:#000000"/>
</linearGradient>
<path class="st17" d="M146.8,58.6h7.1c0.9,0,1.7,0.8,1.7,1.7v0.8c0,0.9-0.8,1.7-1.7,1.7h-7.1c-0.9,0-1.7-0.8-1.7-1.7v-0.8
	C145.1,59.4,145.9,58.6,146.8,58.6z"/>
<linearGradient id="SVGID_33_" gradientUnits="userSpaceOnUse" x1="194.7361" y1="101.1489" x2="184.1662" y2="101.1489">
	<stop  offset="0" style="stop-color:#DA8CFF"/>
	<stop  offset="1" style="stop-color:#9A55FF"/>
	<stop  offset="1" style="stop-color:#080509"/>
	<stop  offset="1" style="stop-color:#000000"/>
</linearGradient>
<linearGradient id="SVGID_34_" gradientUnits="userSpaceOnUse" x1="194.8611" y1="101.1489" x2="184.0412" y2="101.1489">
	<stop  offset="0" style="stop-color:#DA8CFF"/>
	<stop  offset="1" style="stop-color:#9A55FF"/>
	<stop  offset="1" style="stop-color:#080509"/>
	<stop  offset="1" style="stop-color:#000000"/>
</linearGradient>
<path class="st18" d="M185.9,103.2h7.1c0.9,0,1.7-0.8,1.7-1.7v-0.8c0-0.9-0.8-1.7-1.7-1.7h-7.1c-0.9,0-1.7,0.8-1.7,1.7v0.8
	C184.2,102.5,184.9,103.2,185.9,103.2z"/>
</svg>
